<svg viewBox="0 0 96 96" xmlns="http://www.w3.org/2000/svg" xmlns:xlink="http://www.w3.org/1999/xlink" id="Icons_Excalibur_M" overflow="hidden"><style>
.MsftOfcThm_Text1_Fill_v2 {
 fill:#000000; 
}
</style>
<g id="Icons"><path d="M87.121 91 80.97 82.184 79.008 70.816C78.9394 70.4183 78.6385 70.1008 78.245 70.011L66.608 67.353 64.249 65.2 57.891 54.078C57.6514 53.6588 57.1465 53.4708 56.691 53.631L48.8 56.405 45.593 32.824 50.008 29.811C50.6377 30.167 51.3486 30.3544 52.072 30.355 52.5706 30.3538 53.0652 30.2665 53.534 30.097 55.7227 29.2897 56.8425 26.8609 56.0352 24.6722 55.4236 23.0141 53.8443 21.912 52.077 21.91 51.8847 21.9102 51.6926 21.9232 51.502 21.949 50.2526 22.1179 49.1445 22.8374 48.482 23.91L42.432 24.732 40.762 12.455C42.9743 10.2938 43.0158 6.74829 40.8546 4.53594 38.6933 2.3236 35.1479 2.28216 32.9355 4.44338 30.7232 6.60461 30.6817 10.1501 32.8429 12.3624 33.0356 12.5596 33.2425 12.7423 33.462 12.909 33.7029 13.0921 33.958 13.2556 34.225 13.398L35.888 25.623 29.837 26.446C29.0588 25.7254 28.0376 25.3248 26.977 25.324 26.785 25.3242 26.5932 25.3372 26.403 25.363 24.0916 25.6746 22.4705 27.801 22.7821 30.1124 23.0465 32.0739 24.6378 33.5886 26.61 33.756 26.727 33.765 26.842 33.77 26.956 33.77 28.0655 33.7746 29.1318 33.34 29.922 32.561L34.946 34.273 38.446 60.044 26.69 64.178C26.4396 64.2662 26.2345 64.4504 26.12 64.69L21.239 74.9 12.468 80.747C12.2595 80.8858 12.1107 81.0978 12.051 81.341L9.684 91 4 91 4 93 92 93 92 91ZM34.671 11.317C33.0862 10.111 32.7791 7.84851 33.9851 6.26368 34.5646 5.50227 35.4228 5.00235 36.371 4.874 36.5344 4.85213 36.6991 4.8411 36.864 4.841 38.8555 4.84476 40.4669 6.46227 40.4632 8.45381 40.4594 10.4453 38.8419 12.0568 36.8504 12.053 36.0641 12.0515 35.2998 11.793 34.674 11.317ZM40.449 25 37.868 25.351 36.326 14.012C36.498 14.028 36.668 14.054 36.843 14.054 37.0993 14.0534 37.3552 14.0353 37.609 14 38.0546 13.9381 38.4911 13.8226 38.909 13.656ZM36.957 34.231 41.85 33.566C42.3973 33.4914 42.7806 32.9873 42.706 32.44 42.6314 31.8927 42.1273 31.5094 41.58 31.584L35.634 32.393 35.589 32.378 30.565 30.666 29.4 30.266 28.52 31.127C28.1043 31.5405 27.5403 31.7702 26.954 31.765 26.891 31.765 26.826 31.765 26.761 31.757 25.5381 31.6422 24.6398 30.5577 24.7547 29.3348 24.8695 28.1119 25.9539 27.2136 27.1768 27.3285 27.663 27.3741 28.1206 27.5785 28.479 27.91L29.171 28.549 30.105 28.422 48.752 25.886 49.685 25.759 50.185 24.959C50.592 24.3037 51.3086 23.9051 52.08 23.905L52.08 23.905C52.6946 23.9072 53.2809 24.1635 53.7 24.613 54.1276 25.0749 54.3423 25.6946 54.292 26.322 54.2186 27.1742 53.6618 27.9084 52.861 28.209 52.6092 28.3013 52.3432 28.349 52.075 28.35 51.695 28.3489 51.3218 28.25 50.991 28.063L49.909 27.455 48.884 28.155 44.468 31.168 43.447 31.868 43.614 33.093 46.876 57.081 44.404 57.95 41.484 36.482C41.4097 35.9347 40.9058 35.5512 40.3585 35.6255 39.8112 35.6998 39.4277 36.2037 39.502 36.751L42.477 58.628 40.377 59.366ZM13.9 82.19 22.576 76.406C22.7259 76.3064 22.8461 76.1682 22.924 76.006L27.744 65.928 56.568 55.794 62.591 66.329C62.615 66.3641 62.6414 66.3975 62.67 66.429L55.924 71.513 46.85 75.12C46.8448 75.1217 46.8419 75.1274 46.8436 75.1326 46.8446 75.1356 46.847 75.138 46.85 75.139L57.843 73.59 66.043 69.276 77.143 71.813 79.03 82.744C79.055 82.8878 79.1113 83.0244 79.195 83.144L84.682 91 11.744 91Z" class="MsftOfcThm_Text1_Fill_v2"/></g></svg>