<svg viewBox="0 0 96 96" xmlns="http://www.w3.org/2000/svg" xmlns:xlink="http://www.w3.org/1999/xlink" id="Icons_Fireworks_M" overflow="hidden"><g id="Icons"><path d="M39.5469 42.39C39.4589 41.8452 38.947 41.4742 38.4019 41.56 33.7613 42.3422 29.389 44.2691 25.6807 47.1665 25.243 47.5034 25.1614 48.1313 25.4983 48.5689 25.8351 49.0066 26.463 49.0883 26.9007 48.7514 30.3445 46.0574 34.4056 44.2646 38.7166 43.5351 39.262 43.4479 39.6336 42.9354 39.5469 42.39Z"/><path d="M17.7241 56.438C16.0057 59.5659 15.0055 63.0373 14.7959 66.6 14.7701 67.1517 15.1963 67.6199 15.748 67.6457 15.7642 67.6466 15.7798 67.6469 15.7959 67.6469 16.3296 67.6464 16.7689 67.2269 16.7939 66.6937 16.9892 63.4299 17.9084 60.2505 19.4849 57.3861 19.7522 56.9028 19.577 56.2943 19.0937 56.0271 18.6104 55.7598 18.002 55.9349 17.7347 56.4182 17.7311 56.4247 17.7276 56.4313 17.7241 56.4379Z"/><path d="M35.2158 37.5757C35.7535 37.7016 36.2916 37.3678 36.4175 36.8301 36.5434 36.2924 36.2096 35.7543 35.6719 35.6284 32.336 34.861 28.923 34.4797 25.5 34.4919 17.2788 34.4919 9.4692 36.6646 4.6094 40.3037 4.16727 40.6348 4.0773 41.2617 4.40845 41.7038 4.7396 42.146 5.36647 42.236 5.8086 41.9048 10.3345 38.5154 17.6958 36.4919 25.5 36.4919 28.7694 36.4796 32.0294 36.8433 35.2158 37.5757Z"/><path d="M17.2139 18.9116C22.2627 18.9185 28.6239 21.4182 34.23 25.5986 37.6022 28.0642 40.5233 31.0936 42.8647 34.5532 43.1675 35.0152 43.7875 35.1441 44.2495 34.8413 44.7115 34.5385 44.8404 33.9185 44.5376 33.4565 42.0676 29.8015 38.9849 26.6007 35.4253 23.9951 29.4868 19.5671 22.6797 16.9189 17.2168 16.9116L17.2153 16.9116C16.663 16.9112 16.215 17.3586 16.2146 17.9109 16.2142 18.4632 16.6616 18.9112 17.2139 18.9116Z"/><path d="M68.7173 43.77C66.2521 42.5627 63.6384 41.686 60.9438 41.1625 60.4025 41.0528 59.8748 41.4027 59.7651 41.944 59.6555 42.4853 60.0054 43.013 60.5467 43.1227 60.554 43.1242 60.5614 43.1256 60.5688 43.1269 63.0903 43.6175 65.5361 44.4385 67.8428 45.5688 73.7764 48.4533 78.4316 53.1164 80.2949 58.0427 80.4903 58.5594 81.0676 58.8199 81.5843 58.6245 82.1009 58.4291 82.3614 57.8518 82.166 57.3351 80.126 51.9436 75.0986 46.8726 68.7173 43.77Z"/><path d="M55.64 46.4932C55.1725 46.1992 54.5551 46.3398 54.2611 46.8073 53.9694 47.2711 54.1053 47.8833 54.5658 48.1802 55.7667 48.9505 56.8611 49.8755 57.8207 50.9314 60.1945 53.3647 61.5797 56.593 61.7075 59.99 61.6963 60.5419 62.1346 60.9985 62.6865 61.01L62.708 61.01C63.2523 61.0101 63.6967 60.5749 63.708 60.0307 63.5878 56.1203 62.0152 52.3949 59.2969 49.5812 58.2187 48.3959 56.9892 47.3576 55.64 46.4932Z"/><path d="M62.32 33.1011C59.5591 33.7129 56.8893 34.6801 54.3771 35.9785 53.8865 36.232 53.6942 36.8353 53.9478 37.326 54.2013 37.8166 54.8046 38.0088 55.2953 37.7553 55.3008 37.7524 55.3062 37.7495 55.3117 37.7466 57.6709 36.5294 60.1779 35.623 62.77 35.05 63.3099 34.9335 63.6531 34.4014 63.5366 33.8616 63.4201 33.3217 62.888 32.9785 62.3481 33.095 62.339 33.097 62.3299 33.0991 62.3208 33.1013Z"/><path d="M91.1255 38.123C91.4381 37.6682 91.3228 37.0462 90.868 36.7336 90.8678 36.7334 90.8675 36.7332 90.8672 36.733 87.2993 34.283 81.6489 32.613 75.3647 32.1509 74.8139 32.1105 74.3346 32.5242 74.2942 33.0751 74.2537 33.6259 74.6675 34.1052 75.2183 34.1456 81.0723 34.5756 86.499 36.159 89.7354 38.3814 90.1903 38.694 90.8125 38.5787 91.1251 38.1238 91.1252 38.1236 91.1253 38.1235 91.1254 38.1233Z"/><path d="M52.0562 32.0806C53.4363 29.1623 55.2237 26.4546 57.3647 24.0386 61.7974 18.9761 67.3647 15.4186 72.2573 14.5215 72.8 14.419 73.1568 13.8959 73.0543 13.3533 72.9526 12.815 72.4367 12.4587 71.8973 12.5542 66.5752 13.53 60.58 17.33 55.86 22.7212 53.5945 25.2798 51.7033 28.1467 50.2428 31.2363 50.0097 31.7371 50.2266 32.3321 50.7274 32.5652 51.2282 32.7983 51.8232 32.5814 52.0563 32.0806Z"/><path d="M45.1177 50.0925C44.6112 49.8722 44.0221 50.1042 43.8018 50.6107 43.8018 50.6107 43.8018 50.6108 43.8018 50.6108 41.7142 55.8062 40.3629 61.2679 39.7871 66.8374 39.1157 72.01 39.0903 77.2459 39.7114 82.4248 39.7811 82.9176 40.2025 83.2841 40.7002 83.2848 40.7476 83.2849 40.7949 83.2815 40.8418 83.2748 41.3885 83.1974 41.769 82.6915 41.6918 82.1448 41.0944 77.1372 41.1217 72.0748 41.7733 67.074 42.3255 61.698 43.6255 56.4255 45.6356 51.409 45.8562 50.9027 45.6246 50.3134 45.1183 50.0928 45.1181 50.0927 45.1179 50.0926 45.1177 50.0925Z"/><path d="M37.0317 48.7371C36.3561 49.4585 35.7277 50.2228 35.1504 51.0251 33.5665 53.161 32.4297 55.5945 31.8081 58.18 31.6928 58.72 32.0371 59.2513 32.5771 59.3667 32.6461 59.3814 32.7165 59.3889 32.7871 59.389 33.2586 59.3883 33.6656 59.0586 33.7642 58.5975 34.3272 56.2826 35.3506 54.1047 36.7734 52.1939 37.3 51.4617 37.8734 50.7644 38.49 50.1062 38.8681 49.7036 38.8482 49.0707 38.4455 48.6926 38.0429 48.3146 37.4101 48.3345 37.032 48.7371Z"/><path d="M43.7715 19.73C43.8721 20.2731 44.3939 20.6318 44.937 20.5313 45.4802 20.4307 45.8389 19.9088 45.7383 19.3657 45.295 16.6992 44.4874 14.1063 43.3383 11.6597 43.0939 11.1644 42.4943 10.961 41.999 11.2054 41.5038 11.4498 41.3004 12.0494 41.5448 12.5447 41.5506 12.5565 41.5566 12.5681 41.5629 12.5797 42.6212 14.8514 43.3643 17.2571 43.7715 19.73Z"/><path d="M56.8774 75.0144C57.4303 75.0146 57.8787 74.5666 57.8789 74.0137 57.879 73.9731 57.8765 73.9326 57.8716 73.8923 57.0717 67.0031 55.5331 60.22 53.2822 53.66 53.0988 53.139 52.5278 52.8653 52.0068 53.0487 51.4858 53.2321 51.2121 53.8031 51.3955 54.3241 53.5987 60.7481 55.1042 67.3905 55.8862 74.1366 55.9479 74.6373 56.3729 75.0137 56.8774 75.0144Z"/><circle cx="9" cy="49" r="2"/><circle cx="30" cy="66" r="2"/><circle cx="71" cy="61" r="2"/><circle cx="58" cy="84" r="2"/><circle cx="54" cy="15" r="2"/><circle cx="31" cy="12" r="2"/><circle cx="69" cy="33" r="2"/><circle cx="22" cy="52" r="2"/><circle cx="46" cy="25.9583" r="2"/><path d="M19.3418 77.2258 17.0457 77.2258C16.7613 77.2192 16.5113 77.0358 16.4194 76.7666L15.668 74.5125C15.5657 74.2268 15.3029 74.0298 15 74.0117 14.7094 74.0288 14.4522 74.2055 14.332 74.4707L13.5806 76.7249C13.5031 77.0043 13.2441 77.1942 12.9543 77.1841L10.6582 77.1841C10.3684 77.174 10.1095 77.3639 10.032 77.6433 9.94922 77.9131 10.0307 78.2063 10.2407 78.3948L11.0339 79.1042 12.0359 80.0227C12.1291 80.1174 12.2003 80.2314 12.2446 80.3567 12.2864 80.4784 12.2864 80.6106 12.2446 80.7324L11.5346 83.1118C11.4394 83.39 11.5417 83.6976 11.7846 83.8633 12.0227 84.03 12.3397 84.03 12.5778 83.8633L14.5817 82.4438C14.8198 82.2769 15.1368 82.2769 15.3749 82.4438L17.38 83.8633C17.6182 84.03 17.9351 84.03 18.1733 83.8633 18.4107 83.6934 18.5116 83.39 18.4233 83.1118L17.7133 80.7324C17.6303 80.4753 17.7132 80.1936 17.9221 80.0224L19.759 78.4362C19.9642 78.2448 20.0448 77.9546 19.9677 77.6848 19.8655 77.4236 19.6217 77.2448 19.3418 77.2258ZM15.6841 80.4133C15.2222 80.2867 14.7347 80.2867 14.2728 80.4133 14.2606 80.1784 14.2166 79.9463 14.142 79.7233 14.0612 79.4841 13.9492 79.2566 13.8087 79.0468 14.2687 78.8949 14.6773 78.6179 14.9887 78.2468 15.2883 78.6141 15.6805 78.8948 16.1248 79.0598 15.8581 79.4628 15.7058 79.9306 15.6841 80.4133Z"/><path d="M6.5825 28.4438C6.82055 28.2769 7.13765 28.2769 7.3757 28.4438L9.38 29.8633C9.61817 30.03 9.93513 30.03 10.1733 29.8633 10.4107 29.6934 10.5116 29.39 10.4233 29.1118L9.7133 26.7324C9.63034 26.4753 9.71317 26.1936 9.9221 26.0224L11.759 24.4362C11.9642 24.2448 12.0448 23.9546 11.9677 23.6848 11.8655 23.4233 11.6216 23.2444 11.3415 23.2255L9.0457 23.2255C8.76131 23.2189 8.51126 23.0355 8.4194 22.7663L7.668 20.5125C7.56572 20.2269 7.30287 20.0298 7 20.0117 6.70938 20.0288 6.45216 20.2055 6.332 20.4707L5.5806 22.7249C5.5031 23.0044 5.24412 23.1942 4.9543 23.1841L2.6582 23.1841C2.3684 23.174 2.10946 23.3639 2.032 23.6433 1.94922 23.9131 2.03066 24.2064 2.2407 24.3948L3.0339 25.1042 4.0359 26.0227C4.12907 26.1174 4.20031 26.2314 4.2446 26.3567 4.2864 26.4784 4.2864 26.6107 4.2446 26.7324L3.5346 29.1118C3.43946 29.3901 3.54199 29.6977 3.7851 29.8633 4.02324 30.03 4.34016 30.03 4.5783 29.8633ZM6.9886 24.248C7.28818 24.6153 7.68038 24.896 8.1247 25.061 7.85823 25.4636 7.70596 25.931 7.6841 26.4133 7.22218 26.2867 6.73472 26.2867 6.2728 26.4133 6.26059 26.1784 6.21659 25.9463 6.142 25.7233 6.06123 25.4841 5.94916 25.2566 5.8087 25.0468 6.26851 24.8952 6.67706 24.6186 6.9886 24.248Z"/><path d="M80.3418 69.126 78.0457 69.126C77.7613 69.1193 77.5113 68.9359 77.4194 68.6667L76.668 66.4126C76.5657 66.1269 76.3029 65.9298 76 65.9116 75.7094 65.9288 75.4522 66.1056 75.332 66.3708L74.5806 68.625C74.5031 68.9044 74.2441 69.0943 73.9543 69.0842L71.6582 69.0842C71.3684 69.0741 71.1094 69.264 71.032 69.5435 70.9492 69.8132 71.0307 70.1065 71.2407 70.2949L72.0339 71.0049 73.0359 71.9234C73.1291 72.0181 73.2003 72.1321 73.2446 72.2573 73.2864 72.3791 73.2864 72.5113 73.2446 72.6331L72.5346 75.0125C72.4395 75.2907 72.542 75.5982 72.7851 75.7637 73.0232 75.9306 73.3402 75.9306 73.5783 75.7637L75.5822 74.3445C75.8203 74.1776 76.1373 74.1776 76.3754 74.3445L78.38 75.7632C78.6181 75.9301 78.9352 75.9301 79.1733 75.7632 79.4106 75.5935 79.5116 75.2901 79.4233 75.012L78.7133 72.6326C78.6303 72.3755 78.7132 72.0938 78.9221 71.9226L80.759 70.3364C80.9642 70.145 81.0449 69.8547 80.9677 69.5849 80.8655 69.3237 80.6217 69.1449 80.3418 69.126ZM76.6841 72.3135C76.2222 72.1869 75.7347 72.1869 75.2728 72.3135 75.2606 72.0786 75.2166 71.8465 75.142 71.6235 75.0613 71.3843 74.9492 71.1568 74.8087 70.947 75.2687 70.795 75.6772 70.518 75.9887 70.147 76.2883 70.5143 76.6804 70.7949 77.1247 70.96 76.8581 71.363 76.7058 71.8308 76.6841 72.3135Z"/><path d="M78.0339 22.1045 79.0359 23.0229C79.1291 23.1175 79.2003 23.2315 79.2446 23.3567 79.2864 23.4784 79.2864 23.6107 79.2446 23.7324L78.5346 26.1118C78.4395 26.3901 78.542 26.6977 78.7851 26.8633 79.0232 27.0302 79.3402 27.0302 79.5783 26.8633L81.5822 25.4441C81.8202 25.2769 82.1374 25.2769 82.3754 25.4441L84.38 26.8633C84.6181 27.0302 84.9352 27.0302 85.1733 26.8633 85.4107 26.6934 85.5116 26.39 85.4233 26.1118L84.7133 23.7324C84.6305 23.4755 84.7133 23.194 84.9221 23.0229L86.759 21.4365C86.9642 21.2452 87.0448 20.955 86.9677 20.6853 86.8655 20.4239 86.6216 20.245 86.3415 20.2261L84.0457 20.2261C83.7613 20.2194 83.5113 20.036 83.4194 19.7668L82.668 17.5127C82.5657 17.227 82.3029 17.0299 82 17.0117 81.7094 17.0289 81.4522 17.2057 81.332 17.4709L80.5806 19.7251C80.5031 20.0046 80.2441 20.1944 79.9543 20.1843L77.6582 20.1843C77.3684 20.1742 77.1094 20.3641 77.032 20.6436 76.9493 20.9133 77.0307 21.2064 77.2407 21.3948ZM81.9887 21.2483C82.2883 21.6156 82.6804 21.8962 83.1247 22.0613 82.8582 22.4639 82.7059 22.9313 82.6841 23.4136 82.2222 23.287 81.7347 23.2872 81.2728 23.4141 81.2606 23.1792 81.2166 22.9471 81.142 22.7241 81.0612 22.485 80.9492 22.2576 80.8088 22.0479 81.2687 21.896 81.6772 21.6191 81.9887 21.2483Z"/><circle cx="92" cy="52" r="2"/></g></svg>