<svg viewBox="0 0 96 96" xmlns="http://www.w3.org/2000/svg" xmlns:xlink="http://www.w3.org/1999/xlink" id="Icons_Sword_M" overflow="hidden"><g id="Icons"><path d="M89.316 5.664C89.1892 5.66455 89.0637 5.68897 88.946 5.736L74.811 11.267 32.385 53.693 25.779 51.493C25.4031 48.7731 23.0788 46.7471 20.333 46.746 19.2756 46.7423 18.2402 47.0486 17.355 47.627 14.7996 49.2691 14.0592 52.6719 15.7013 55.2274 16.7149 56.8046 18.4621 57.7569 20.337 57.754 20.513 57.754 20.688 57.746 20.863 57.729L26.7 63.566 15.18 75.086C11.3656 74.4299 7.74156 76.9902 7.08547 80.8046 6.42938 84.619 8.9897 88.2431 12.8041 88.8992 16.6185 89.5552 20.2425 86.9949 20.8986 83.1805 21.0398 82.3595 21.0335 81.5198 20.88 80.701L32.358 69.223 38.2 75.062C37.9025 78.0888 40.1151 80.7838 43.1419 81.0813 46.1687 81.3788 48.8637 79.1662 49.1612 76.1394 49.449 73.2114 47.3845 70.5743 44.473 70.151L42.287 63.593 84.711 21.166 90.242 7.031C90.4447 6.51726 90.1925 5.93647 89.6788 5.73377 89.5632 5.68819 89.4402 5.66452 89.316 5.664ZM17.536 85.513C15.5836 87.4659 12.4178 87.4663 10.4649 85.5139 8.51205 83.5616 8.51164 80.3957 10.464 78.4429 12.4164 76.49 15.5822 76.4896 17.5351 78.4419 18.4728 79.3794 18.9998 80.651 19 81.977 18.9994 83.303 18.4729 84.5746 17.536 85.513ZM20.136 78.613C19.4828 77.4186 18.495 76.4409 17.294 75.8L28.116 64.98 30.944 67.809ZM83 20.048 40.87 62.178 40.87 62.178 35.894 57.2C35.4967 56.8163 34.8637 56.8273 34.48 57.2246 34.1057 57.6121 34.1057 58.2265 34.48 58.614L40.137 64.271C40.234 64.3675 40.3497 64.443 40.477 64.493L42.577 70.782 42.967 71.95 44.185 72.128C45.2786 72.288 46.2338 72.9518 46.765 73.921 47.3795 75.0307 47.3322 76.3887 46.642 77.453 45.6108 79.0932 43.4452 79.5869 41.805 78.5557 41.4098 78.3072 41.0681 77.9823 40.8 77.6 40.3099 76.8791 40.0952 76.006 40.195 75.14L40.274 74.318 39.607 73.652 22.277 56.313 21.611 55.647 20.673 55.737C20.561 55.747 20.449 55.752 20.337 55.752 18.404 55.757 16.8329 54.1941 16.8279 52.2611 16.8247 51.0578 17.44 49.9372 18.457 49.294 19.0149 48.9306 19.6673 48.7394 20.333 48.744 20.9964 48.7402 21.6466 48.9288 22.205 49.287 23.0746 49.8395 23.6572 50.7464 23.798 51.767L23.969 53 25.146 53.393 31.752 55.593 32.925 55.983 33.799 55.109 75.93 12.977 87.53 8.439C87.542 8.439 87.548 8.439 87.543 8.452Z"/><path d="M39.635 56.7C40.0255 57.0904 40.6585 57.0904 41.049 56.7L77.818 19.931C78.2085 19.5394 78.2076 18.9055 77.816 18.515 77.4244 18.1245 76.7905 18.1254 76.4 18.517L39.635 55.286C39.2446 55.6765 39.2446 56.3095 39.635 56.7Z"/></g></svg>