<svg viewBox="0 0 96 96" xmlns="http://www.w3.org/2000/svg" xmlns:xlink="http://www.w3.org/1999/xlink" id="Icons_Dragon_M" overflow="hidden"><g id="Icons"><path d="M90.4581 38.7116C91.344 38.6964 92.0541 37.9739 92.0541 37.0879L92.0541 35.1313C92.0541 32.0126 89.5259 29.4844 86.4072 29.4844 86.4072 29.4844 86.4071 29.4844 86.4071 29.4844L85.06 29.4844 82.51 27.4444C82.4973 27.4337 82.48 27.422 82.467 27.4112 82.4685 27.3912 82.4791 27.3731 82.4792 27.3521 82.4939 24.1705 80.1501 21.0797 77.8274 19.4321 76.4811 18.4621 74.9075 17.8554 73.2585 17.6704 72.4944 17.5966 71.8151 18.1563 71.7414 18.9204 71.694 19.4114 71.9104 19.8908 72.31 20.18 74.2416 21.5021 75.7224 23.3835 76.5538 25.5716L74.7478 25.5716C73.2076 22.4453 70.0236 20.4671 66.5385 20.471 66.4956 20.474 66.4526 20.4744 66.4096 20.472 64.7734 20.4729 63.1646 20.8913 61.7352 21.6875 61.452 21.8405 61.228 22.0837 61.0989 22.3786 60.8003 23.0854 61.1311 23.9004 61.8379 24.1991 62.0064 24.2702 62.1872 24.3075 62.37 24.3086L62.3735 24.3086C63.9587 24.3236 65.5114 24.7596 66.8727 25.5718L65.5009 25.5718C63.8284 25.552 62.4057 26.7871 62.1903 28.4458 62.0159 30.1239 63.1782 31.6476 64.8427 31.9229L65.5658 33.1529C65.8341 33.626 65.8862 34.1915 65.7089 34.7057 64.4965 39.4367 64.2594 44.365 65.0121 49.1905 65.0776 49.6905 65.1527 50.19 65.2333 50.6817 65.3824 51.5764 65.1475 52.4926 64.5863 53.2052 63.8528 53.7744 62.9827 54.141 62.0631 54.2686 62.0079 54.1661 61.9515 54.0621 61.9158 53.9845 59.9236 49.5006 56.8821 39.9981 56.5878 34.5279L56.5578 34.0265C56.2859 28.5825 57.2204 23.1458 59.2944 18.105 59.5136 17.5409 59.4261 16.9035 59.0629 16.4194 54.1723 9.9619 43.5678 7.3936 32.6752 10.0259 21.5805 12.709 12.89 20.0537 11.0487 28.3022 10.83 29.2611 11.4142 30.2199 12.3666 30.4653 12.8219 30.5781 13.3036 30.5017 13.7016 30.2534 15.4934 29.1491 17.4487 28.3355 19.495 27.8428 21.5254 27.2276 23.6349 26.9134 25.7564 26.9101 25.7619 26.9104 25.7661 26.9151 25.7658 26.9206 25.7657 26.9234 25.7644 26.926 25.7622 26.9278 21.3702 30.7246 18.7602 36.1807 18.5605 41.9829 18.4873 42.9466 19.2092 43.7872 20.173 43.8604 20.6922 43.8998 21.202 43.706 21.5639 43.3315 23 41.8342 24.6623 40.5716 26.49 39.59 27.4592 39.0887 28.4962 38.7309 29.5683 38.5277 29.5738 38.5271 29.5787 38.531 29.5794 38.5365 29.5797 38.5391 29.5789 38.5417 29.5773 38.5438 26.3763 42.6818 25.4316 48.1361 27.0544 53.1096 27.2759 53.8246 27.9197 54.3257 28.6672 54.3649L28.6965 54.3649C29.3658 54.3629 29.9812 53.9973 30.303 53.4104 31.4712 51.3057 33.1206 49.5071 35.1164 48.1613 35.5496 47.8595 36.0094 47.5977 36.49 47.3791 37.1671 47.0971 37.9298 47.1026 38.6028 47.3942 39.3384 47.716 39.9109 48.3241 40.1877 49.0778 40.3981 49.5776 40.3672 50.1463 40.1037 50.6203 40.0961 50.634 40.0969 50.6491 40.0899 50.6628 40.0829 50.6765 40.0699 50.6853 40.0637 50.6994 39.7528 51.3886 39.3826 52.1626 38.9967 52.9475L37.3537 53.1691C31.2479 54.3872 26.6583 59.4573 26.0522 65.6538L25.9838 66.4072 25.98 66.52C26.0391 69.515 24.1633 72.2076 21.3334 73.19 19.5784 73.7998 17.6368 73.5219 16.1234 72.4443 14.6672 71.385 13.8032 69.695 13.7972 67.8943L13.7972 59.4761 16.4372 57.4961C17.3971 56.7886 17.7764 55.5333 17.3689 54.4126L13.3762 43.2433C13.0114 42.1511 11.9409 41.4554 10.7947 41.5655 9.89408 41.6759 9.13275 42.2849 8.8271 43.1392L4.8017 54.4121C4.39555 55.5316 4.77309 56.7848 5.73 57.4937L8.3345 59.4468 7.95 68.27C7.74254 71.8688 8.92026 75.4106 11.2415 78.1686 13.6788 80.9907 17.1757 82.6779 20.9015 82.8294 21.0963 82.8377 21.2916 82.842 21.4874 82.8421L23.4547 82.8421C30.5153 82.8421 36.1539 77.0662 36.2916 69.6927 36.327 67.8521 37.7789 66.3518 39.6173 66.2561L38.4838 74.72C38.4179 75.212 38.4459 75.712 38.5663 76.1936L40.5228 84.0196C40.9606 85.7712 42.5345 87.0001 44.34 87L54.004 87C54.5563 87 55.004 86.5523 55.004 86L55.004 85.8306C55.004 82.1303 52.0043 79.1306 48.304 79.1306L47.4163 79.1306 46.578 75.7756C47.9233 74.792 49.0555 73.5461 49.9061 72.113 50.7191 70.5214 51.3357 68.837 51.7422 67.0966 51.8583 66.6256 51.6289 66.1377 51.1922 65.9266 50.6892 65.6973 50.0956 65.9193 49.8663 66.4223 49.8387 66.4828 49.8173 66.5459 49.8022 66.6107 49.4385 68.1828 48.8861 69.7052 48.1572 71.1448 47.3513 72.4894 46.2471 73.6307 44.93 74.4808 44.5542 74.711 44.3682 75.1562 44.4686 75.5854L45.6653 80.3728C45.7765 80.818 46.1764 81.1303 46.6353 81.1304L48.3037 81.1304C50.5782 81.1334 52.5254 82.7619 52.9306 85L44.34 85C43.4525 85.0001 42.6788 84.396 42.4636 83.535L40.507 75.7085C40.4478 75.472 40.4341 75.2264 40.4664 74.9848L41.7384 65.4858C41.8113 64.981 41.4885 64.5036 40.9929 64.3832 38.0251 63.7222 35.0834 65.5921 34.4224 68.5599 34.3421 68.9201 34.2983 69.2874 34.2916 69.6563 34.1744 75.9287 29.4142 80.8423 23.4547 80.8423L21.4872 80.8423C21.3207 80.8423 21.1537 80.8389 20.9872 80.8315 17.8099 80.7021 14.828 79.2629 12.75 76.8558 10.7718 74.5044 9.76816 71.4853 9.945 68.4176L10.2785 60.7788 10.4711 60.9072C10.797 61.124 11.2194 61.1309 11.5522 60.9248L11.7973 60.7729 11.7973 67.895C11.8052 70.3382 12.9783 72.631 14.955 74.0669 16.9981 75.5248 19.6212 75.9017 21.9921 75.0781 25.6204 73.8182 28.0334 70.3756 27.98 66.5352L28.0425 65.8452C28.5576 60.5469 32.4688 56.2045 37.6845 55.14L37.9103 55.11C36.9538 56.9793 36.1373 58.5 36.123 58.5265 35.8614 59.013 36.0438 59.6194 36.5303 59.881 37.0167 60.1425 37.6231 59.9602 37.8847 59.4737 37.9897 59.2779 40.477 54.6476 41.8866 51.5216 41.892 51.5096 41.8901 51.4969 41.895 51.485 42.4063 50.5049 42.4595 49.3492 42.0404 48.3263 41.569 47.0819 40.6127 46.0823 39.3904 45.5563 38.213 45.0491 36.8795 45.0443 35.6985 45.5431 35.0999 45.8121 34.5275 46.1359 33.9885 46.5104 31.8833 47.9307 30.1179 49.7985 28.8185 51.9804 28.8158 51.9852 28.8098 51.987 28.8049 51.9844 28.8024 51.983 28.8007 51.9807 28.8 51.9779 27.4022 47.0781 28.8308 41.8072 32.5115 38.2838 32.7851 38.014 32.8854 37.6142 32.7715 37.2472 32.65 36.8816 32.3319 36.6164 31.9505 36.5626 29.4867 36.2635 28.159 36.6139 25.5994 37.7999 23.7706 38.7745 22.0904 40.0052 20.6094 41.4547 20.6055 41.4586 20.5991 41.4585 20.5953 41.4546 20.5932 41.4526 20.5922 41.4497 20.5924 41.4468 20.9624 35.691 23.9667 30.4277 28.7346 27.1822 29.1344 26.9153 29.2878 26.4017 29.1 25.9592 28.9731 25.6778 28.7286 25.4665 28.4318 25.3817 25.3884 24.4465 22.8712 24.9699 19.0267 25.8984 16.9576 26.3961 14.9722 27.193 13.1331 28.2637 13.1284 28.2666 13.1222 28.2652 13.1193 28.2605 13.1179 28.2581 13.1174 28.2552 13.1182 28.2525 15.0299 20.9276 22.9982 14.4237 33.1448 11.9702 43.2068 9.5361 52.9178 11.7637 57.3773 17.5083 55.2367 22.7793 54.2756 28.4548 54.5613 34.1367L54.5913 34.6411C54.9019 40.4211 57.9844 50.0635 60.0899 54.8022L60.0938 54.8083 60.0947 54.8125C60.9996 56.4338 61.9866 58.0079 63.0518 59.5288 63.3588 59.9879 63.9798 60.1112 64.4389 59.8043 64.898 59.4973 65.0214 58.8763 64.7144 58.4172 64.7101 58.4107 64.7057 58.4043 64.7012 58.3979 64.3687 57.9128 63.7388 56.9761 63.1529 56.0647 64.2912 55.8287 65.3357 55.265 66.1577 54.4429 67.0665 53.2883 67.4473 51.8045 67.2066 50.355 67.1294 49.8867 67.0581 49.4087 66.9917 48.9072 66.2792 44.3618 66.4963 39.7191 67.63 35.26 67.9633 34.2211 67.8413 33.0896 67.2941 32.1457L66.2451 30.3613C66.0738 30.0908 65.7645 29.9401 65.4459 29.9719 64.7833 30.0106 64.2149 29.5049 64.1761 28.8424 64.1723 28.7766 64.1738 28.7107 64.1808 28.6452 64.2867 28.0055 64.8529 27.5451 65.5008 27.572L69.4826 27.572C70.0163 27.5822 70.4703 27.1849 70.5311 26.6546 70.5672 26.2066 70.2974 25.7903 69.8737 25.6403 68.2929 24.0675 66.2628 23.0242 64.0637 22.6545 64.041 22.6507 64.0403 22.6419 64.0623 22.6345 64.8258 22.3938 65.6217 22.2715 66.4223 22.2717L66.4272 22.2717C69.3516 22.2285 72.0253 23.9173 73.2427 26.5766 73.2455 27.1265 73.6917 27.5709 74.2416 27.5715L76.5128 27.5715 80.2342 28.2993C80.5964 28.4891 80.9349 28.7211 81.2426 28.9904L84.0854 31.2648C84.2627 31.4068 84.4831 31.4841 84.7103 31.4841L86.4081 31.4841C88.422 31.4841 90.0546 33.1167 90.0546 35.1306L90.0546 36.9211 83.4546 36.9211C80.7851 36.9386 78.5247 38.8946 78.124 41.5339 78.0522 42.0257 78.3927 42.4827 78.8846 42.5545 78.9277 42.5608 78.9711 42.5639 79.0147 42.5639L87.121 42.5639C87.1102 43.7147 86.1763 44.643 85.0254 44.6469L77.5268 44.6469C76.9597 44.6478 76.4162 44.8741 76.016 45.2758 75.6084 45.6864 75.3808 46.2422 75.3832 46.8207 75.3857 47.5422 75.5253 48.2567 75.7944 48.9262L76.4032 50.454C78.3214 55.2283 79.303 60.3272 79.2944 65.4725 79.2895 69.8453 75.9759 73.5048 71.6251 73.9425 71.117 73.996 70.7319 74.4255 70.7338 74.9364L70.7338 80.13C70.7338 80.6823 71.1815 81.13 71.7338 81.13L73.3038 81.13C75.5784 81.1331 77.5256 82.7618 77.9306 85L68.7992 85C67.7305 85 66.8642 84.1337 66.8642 83.065 66.8642 83.065 66.8642 83.0649 66.8642 83.0649L66.8642 74.7983C66.8513 74.2865 66.464 73.862 65.9555 73.8023 62.2352 73.4091 58.6048 72.4078 55.2089 70.8384L53.3363 69.9684C52.8982 69.7555 52.3708 69.8805 52.0748 70.2672 51.748 70.713 51.8445 71.3393 52.2903 71.666 52.3434 71.705 52.4002 71.7385 52.4599 71.7663L54.3681 72.6525C57.6929 74.1899 61.232 75.2131 64.8642 75.687L64.8642 83.0654C64.8641 85.2384 66.6256 86.9999 68.7986 87 68.7986 87 68.7987 87 68.7987 87L79.0038 87C79.5561 87 80.0038 86.5523 80.0038 86L80.0038 85.8306C80.0038 82.1303 77.0041 79.1306 73.3038 79.1306L72.7338 79.1306 72.7338 75.8C77.6976 74.859 81.2916 70.5222 81.2944 65.47 81.3028 60.0715 80.2727 54.7217 78.26 49.7124L77.6511 48.1841C77.4753 47.7467 77.3844 47.2799 77.383 46.8086 77.3827 46.764 77.4003 46.7211 77.4318 46.6895L77.5285 46.6475 85.0261 46.6475C87.2864 46.6415 89.1171 44.8103 89.1225 42.55L89.1225 41.979C89.1222 41.8215 89.1016 41.6647 89.061 41.5125 88.9557 41.0781 88.5694 40.7703 88.1225 40.7646L80.2225 40.7646C80.8233 39.5231 82.0772 38.7308 83.4564 38.7212L89.8995 38.7212ZM11.0448 58.8862 9.9314 58.1445 6.9281 55.8921C6.67896 55.7052 6.58053 55.3779 6.6853 55.0846L10.71 43.8125C10.7838 43.6066 11.0105 43.4994 11.2165 43.5732 11.3279 43.6131 11.4156 43.7007 11.4556 43.812L15.4863 55.0874C15.5906 55.3791 15.4927 55.7047 15.2449 55.8905L12.2343 58.1482ZM74.752 19.8624C74.732 19.8441 74.7372 19.8367 74.7628 19.8456 75.4824 20.096 76.1618 20.4497 76.7797 20.8956 78.6482 22.1995 79.9929 24.1246 80.574 26.3277L78.45 25.9124C78.16 23.5958 76.38 21.3607 74.752 19.8624Z"/><path d="M76.0792 31.7589 76.8583 34.0962C77.4323 34.5588 78.1475 34.8109 78.8847 34.8105 79.0659 34.8101 79.2467 34.7954 79.4256 34.7665 80.2447 34.6187 80.9801 34.1727 81.4896 33.5145L81.5834 33.3975 76.5121 29.3315 76.5121 29.3315C75.9655 30.0149 75.8025 30.9287 76.0792 31.7589Z"/></g></svg>