<svg viewBox="0 0 96 96" xmlns="http://www.w3.org/2000/svg" xmlns:xlink="http://www.w3.org/1999/xlink" id="Icons_LineCurveCounterclockwise_M" overflow="hidden"><g id="Icons"><path d="M56.213 7.042C56.213 6.48972 55.7653 6.042 55.213 6.042L34 6.042C33.4477 6.042 33 6.48972 33 7.042L33 28.256C33 28.8083 33.4477 29.256 34 29.256 34.5523 29.256 35 28.8083 35 28.256L35 9.718C35 9.71248 35.0045 9.708 35.01 9.708 35.0122 9.708 35.0143 9.7087 35.016 9.71 56.842 25.194 61.286 45.6 61.146 60.041 61.1124 70.1906 59.1005 80.2362 55.223 89.616 55.0111 90.1258 55.2524 90.7108 55.762 90.923 55.8835 90.9742 56.0141 91.0003 56.146 91 56.5498 90.9999 56.9139 90.7569 57.069 90.384 61.0462 80.7667 63.1103 70.4662 63.146 60.059 63.291 45.134 58.701 24.045 36.146 8.059 36.1416 8.05572 36.1406 8.04946 36.1439 8.04502 36.1456 8.04273 36.1482 8.04127 36.151 8.041L55.213 8.041C55.7649 8.041 56.2124 7.59389 56.213 7.042Z" stroke="none" stroke-width="1" stroke-linecap="butt" stroke-linejoin="miter" stroke-miterlimit="4" fill="#758882" fill-opacity="1"/></g></svg>